<svg id="visual" viewBox="0 0 1920 1080" width="1920" height="1080" xmlns="http://www.w3.org/2000/svg" xmlns:xlink="http://www.w3.org/1999/xlink" version="1.1"><path d="M0 87L40 87C80 87 160 87 240 88.8C320 90.7 400 94.3 480 90.8C560 87.3 640 76.7 720 67.7C800 58.7 880 51.3 960 56.7C1040 62 1120 80 1200 89C1280 98 1360 98 1440 94.5C1520 91 1600 84 1680 78.7C1760 73.3 1840 69.7 1880 67.8L1920 66L1920 0L1880 0C1840 0 1760 0 1680 0C1600 0 1520 0 1440 0C1360 0 1280 0 1200 0C1120 0 1040 0 960 0C880 0 800 0 720 0C640 0 560 0 480 0C400 0 320 0 240 0C160 0 80 0 40 0L0 0Z" fill="#070707"></path><path d="M0 174L40 174C80 174 160 174 240 168.5C320 163 400 152 480 150.2C560 148.3 640 155.7 720 148.5C800 141.3 880 119.7 960 128.7C1040 137.7 1120 177.3 1200 190C1280 202.7 1360 188.3 1440 174C1520 159.7 1600 145.3 1680 138.2C1760 131 1840 131 1880 131L1920 131L1920 64L1880 65.8C1840 67.7 1760 71.3 1680 76.7C1600 82 1520 89 1440 92.5C1360 96 1280 96 1200 87C1120 78 1040 60 960 54.7C880 49.3 800 56.7 720 65.7C640 74.7 560 85.3 480 88.8C400 92.3 320 88.7 240 86.8C160 85 80 85 40 85L0 85Z" fill="#0d0d0d"></path><path d="M0 293L40 318.2C80 343.3 160 393.7 240 391.8C320 390 400 336 480 332.3C560 328.7 640 375.3 720 393.3C800 411.3 880 400.7 960 395.3C1040 390 1120 390 1200 393.5C1280 397 1360 404 1440 391.3C1520 378.7 1600 346.3 1680 326.7C1760 307 1840 300 1880 296.5L1920 293L1920 129L1880 129C1840 129 1760 129 1680 136.2C1600 143.3 1520 157.7 1440 172C1360 186.3 1280 200.7 1200 188C1120 175.3 1040 135.7 960 126.7C880 117.7 800 139.3 720 146.5C640 153.7 560 146.3 480 148.2C400 150 320 161 240 166.5C160 172 80 172 40 172L0 172Z" fill="#121212"></path><path d="M0 325L40 355.7C80 386.3 160 447.7 240 447.7C320 447.7 400 386.3 480 382.7C560 379 640 433 720 454.7C800 476.3 880 465.7 960 454.8C1040 444 1120 433 1200 431.2C1280 429.3 1360 436.7 1440 431.3C1520 426 1600 408 1680 395.3C1760 382.7 1840 375.3 1880 371.7L1920 368L1920 291L1880 294.5C1840 298 1760 305 1680 324.7C1600 344.3 1520 376.7 1440 389.3C1360 402 1280 395 1200 391.5C1120 388 1040 388 960 393.3C880 398.7 800 409.3 720 391.3C640 373.3 560 326.7 480 330.3C400 334 320 388 240 389.8C160 391.7 80 341.3 40 316.2L0 291Z" fill="#161616"></path><path d="M0 390L40 415.2C80 440.3 160 490.7 240 488.8C320 487 400 433 480 427.7C560 422.3 640 465.7 720 485.5C800 505.3 880 501.7 960 490.8C1040 480 1120 462 1200 456.5C1280 451 1360 458 1440 458C1520 458 1600 451 1680 445.7C1760 440.3 1840 436.7 1880 434.8L1920 433L1920 366L1880 369.7C1840 373.3 1760 380.7 1680 393.3C1600 406 1520 424 1440 429.3C1360 434.7 1280 427.3 1200 429.2C1120 431 1040 442 960 452.8C880 463.7 800 474.3 720 452.7C640 431 560 377 480 380.7C400 384.3 320 445.7 240 445.7C160 445.7 80 384.3 40 353.7L0 323Z" fill="#1a1a1a"></path><path d="M0 487L40 512.2C80 537.3 160 587.7 240 591.3C320 595 400 552 480 546.7C560 541.3 640 573.7 720 591.7C800 609.7 880 613.3 960 606.2C1040 599 1120 581 1200 573.7C1280 566.3 1360 569.7 1440 557C1520 544.3 1600 515.7 1680 515.7C1760 515.7 1840 544.3 1880 558.7L1920 573L1920 431L1880 432.8C1840 434.7 1760 438.3 1680 443.7C1600 449 1520 456 1440 456C1360 456 1280 449 1200 454.5C1120 460 1040 478 960 488.8C880 499.7 800 503.3 720 483.5C640 463.7 560 420.3 480 425.7C400 431 320 485 240 486.8C160 488.7 80 438.3 40 413.2L0 388Z" fill="#1a1a1a"></path><path d="M0 541L40 569.8C80 598.7 160 656.3 240 656.3C320 656.3 400 598.7 480 595C560 591.3 640 641.7 720 661.5C800 681.3 880 670.7 960 656.3C1040 642 1120 624 1200 620.3C1280 616.7 1360 627.3 1440 620.2C1520 613 1600 588 1680 584.5C1760 581 1840 599 1880 608L1920 617L1920 571L1880 556.7C1840 542.3 1760 513.7 1680 513.7C1600 513.7 1520 542.3 1440 555C1360 567.7 1280 564.3 1200 571.7C1120 579 1040 597 960 604.2C880 611.3 800 607.7 720 589.7C640 571.7 560 539.3 480 544.7C400 550 320 593 240 589.3C160 585.7 80 535.3 40 510.2L0 485Z" fill="#1a1a1a"></path><path d="M0 692L40 710C80 728 160 764 240 762.2C320 760.3 400 720.7 480 717.2C560 713.7 640 746.3 720 764.3C800 782.3 880 785.7 960 780.2C1040 774.7 1120 760.3 1200 751.3C1280 742.3 1360 738.7 1440 727.8C1520 717 1600 699 1680 702.7C1760 706.3 1840 731.7 1880 744.3L1920 757L1920 615L1880 606C1840 597 1760 579 1680 582.5C1600 586 1520 611 1440 618.2C1360 625.3 1280 614.7 1200 618.3C1120 622 1040 640 960 654.3C880 668.7 800 679.3 720 659.5C640 639.7 560 589.3 480 593C400 596.7 320 654.3 240 654.3C160 654.3 80 596.7 40 567.8L0 539Z" fill="#161616"></path><path d="M0 735L40 754.8C80 774.7 160 814.3 240 812.7C320 811 400 768 480 759C560 750 640 775 720 796.5C800 818 880 836 960 837.8C1040 839.7 1120 825.3 1200 812.8C1280 800.3 1360 789.7 1440 778.8C1520 768 1600 757 1680 764.2C1760 771.3 1840 796.7 1880 809.3L1920 822L1920 755L1880 742.3C1840 729.7 1760 704.3 1680 700.7C1600 697 1520 715 1440 725.8C1360 736.7 1280 740.3 1200 749.3C1120 758.3 1040 772.7 960 778.2C880 783.7 800 780.3 720 762.3C640 744.3 560 711.7 480 715.2C400 718.7 320 758.3 240 760.2C160 762 80 726 40 708L0 690Z" fill="#121212"></path><path d="M0 995L40 1000.3C80 1005.7 160 1016.3 240 1016.3C320 1016.3 400 1005.7 480 998.5C560 991.3 640 987.7 720 985.8C800 984 880 984 960 985.8C1040 987.7 1120 991.3 1200 989.5C1280 987.7 1360 980.3 1440 987.5C1520 994.7 1600 1016.3 1680 1018.2C1760 1020 1840 1002 1880 993L1920 984L1920 820L1880 807.3C1840 794.7 1760 769.3 1680 762.2C1600 755 1520 766 1440 776.8C1360 787.7 1280 798.3 1200 810.8C1120 823.3 1040 837.7 960 835.8C880 834 800 816 720 794.5C640 773 560 748 480 757C400 766 320 809 240 810.7C160 812.3 80 772.7 40 752.8L0 733Z" fill="#0d0d0d"></path><path d="M0 1081L40 1081C80 1081 160 1081 240 1081C320 1081 400 1081 480 1081C560 1081 640 1081 720 1081C800 1081 880 1081 960 1081C1040 1081 1120 1081 1200 1081C1280 1081 1360 1081 1440 1081C1520 1081 1600 1081 1680 1081C1760 1081 1840 1081 1880 1081L1920 1081L1920 982L1880 991C1840 1000 1760 1018 1680 1016.2C1600 1014.3 1520 992.7 1440 985.5C1360 978.3 1280 985.7 1200 987.5C1120 989.3 1040 985.7 960 983.8C880 982 800 982 720 983.8C640 985.7 560 989.3 480 996.5C400 1003.7 320 1014.3 240 1014.3C160 1014.3 80 1003.7 40 998.3L0 993Z" fill="#070707"></path></svg>